<?xml version="1.0" standalone="no"?>
<!DOCTYPE svg PUBLIC "-//W3C//DTD SVG 20010904//EN"
 "http://www.w3.org/TR/2001/REC-SVG-20010904/DTD/svg10.dtd">
<svg version="1.0" xmlns="http://www.w3.org/2000/svg"
 width="1050.000000pt" height="1050.000000pt" viewBox="0 0 1050.000000 1050.000000"
 preserveAspectRatio="xMidYMid meet">
<metadata>
Created by potrace 1.11, written by Peter Selinger 2001-2013
</metadata>
<g transform="translate(0.000000,1050.000000) scale(0.100000,-0.100000)"
fill="#000000" stroke="none">
<path d="M604 9595 c-250 -55 -462 -237 -553 -474 -16 -42 -34 -107 -41 -146
-8 -53 -10 -730 -8 -2730 3 -2520 4 -2663 21 -2720 79 -265 285 -469 547 -542
62 -17 259 -18 4675 -18 4360 0 4614 1 4675 18 91 24 235 97 303 154 114 95
200 228 249 383 l23 75 0 2690 0 2690 -23 75 c-85 268 -255 440 -527 531 l-70
24 -4605 2 c-3836 1 -4615 -1 -4666 -12z m5674 -1242 l3092 -6 0 -2062 0
-2062 -3092 -6 c-1700 -4 -3554 -7 -4120 -7 l-1028 0 0 2075 0 2075 1028 0
c566 0 2420 -3 4120 -7z"/>
<path d="M6080 7269 c-120 -24 -230 -110 -287 -227 -37 -74 -38 -79 -38 -187
0 -103 2 -114 32 -177 61 -130 185 -219 331 -239 42 -6 506 -9 1168 -7 l1099
3 57 22 c153 58 251 176 278 336 38 218 -116 435 -340 477 -66 12 -2235 12
-2300 -1z"/>
<path d="M3492 7229 c-45 -5 -131 -25 -190 -44 -310 -100 -542 -342 -639 -665
-26 -88 -28 -107 -28 -265 1 -192 15 -261 85 -411 252 -544 929 -735 1430
-405 75 49 203 173 255 246 388 547 121 1324 -519 1510 -72 20 -261 48 -300
44 -6 -1 -48 -6 -94 -10z"/>
<path d="M6068 6099 c-113 -26 -235 -127 -286 -236 -24 -53 -27 -69 -27 -173
0 -110 2 -118 33 -182 42 -85 137 -177 219 -210 l58 -23 1170 0 1170 0 60 24
c46 18 78 42 137 101 67 68 79 86 97 144 31 100 35 152 17 229 -21 90 -48 140
-112 207 -56 59 -130 102 -205 119 -55 13 -2278 13 -2331 0z"/>
<path d="M2933 1719 c-226 -29 -392 -253 -353 -476 24 -142 110 -255 237 -316
l68 -32 2355 0 c2259 0 2357 1 2408 18 159 56 272 216 274 388 1 172 -85 309
-242 383 l-65 31 -415 6 c-601 10 -4194 8 -4267 -2z"/>
</g>
</svg>
